<svg width="40" height="40" viewBox="0 0 40 40" fill="none" xmlns="http://www.w3.org/2000/svg">
<path fill-rule="evenodd" clip-rule="evenodd" d="M0 0.999999C0 0.447714 0.447715 0 1 0H39C39.5523 0 40 0.447715 40 1V39C40 39.5523 39.5523 40 39 40H0.999999C0.447714 40 0 39.5523 0 39V0.999999ZM27.3338 13.048C27.451 13.1651 27.451 13.3551 27.3338 13.4722L26.8035 14.0026L21.6971 19.109C21.5799 19.2261 21.5799 19.4161 21.6971 19.5332L27.3386 25.1747L27.8689 25.7051C27.9861 25.8222 27.9861 26.0122 27.8689 26.1293L26.8083 27.19C26.6911 27.3072 26.5012 27.3072 26.384 27.19L25.8537 26.6597L20.2122 21.0182C20.095 20.901 19.9051 20.901 19.7879 21.0182L14.1463 26.6598L13.616 27.1901C13.4988 27.3073 13.3089 27.3073 13.1917 27.1901L12.131 26.1294C12.0139 26.0123 12.0139 25.8223 12.131 25.7052L12.6614 25.1749L18.303 19.5332C18.4201 19.4161 18.4201 19.2261 18.303 19.109L13.1965 14.0025L12.6661 13.4721C12.549 13.355 12.549 13.165 12.6661 13.0479L13.7268 11.9872C13.8439 11.87 14.0339 11.87 14.1511 11.9872L14.6814 12.5175L19.7879 17.6241C19.9051 17.7412 20.095 17.7412 20.2122 17.6241L25.3186 12.5176L25.8489 11.9873C25.9661 11.8702 26.156 11.8702 26.2732 11.9873L27.3338 13.048Z" fill="#FF6CA2"/>
</svg>
