<svg width="81" height="41" viewBox="0 0 81 41" fill="none" xmlns="http://www.w3.org/2000/svg">
<path d="M42.1888 20.4354C42.936 19.8519 43.87 18.604 41.6284 18.2809C40.8345 18.7746 39.8351 19.8968 42.1888 20.4354Z" stroke="#1B4669" stroke-opacity="0.35"/>
<path d="M78.1982 26.226L43.7323 23.5327L57.8829 20.4356L80.0195 25.418L78.1982 26.226Z" fill="#1B4669" fill-opacity="0.35"/>
<path fill-rule="evenodd" clip-rule="evenodd" d="M1.55798 40.5C3.75295 39.1085 8.31104 36.4602 8.98354 36.9988C12.5329 38.3903 20.304 39.315 22.9941 31.8817L42.1884 22.4555L80.9976 14.2412L77.9152 13.7026L38.966 16.1265L37.8452 20.0316L22.4336 27.5726C21.1727 25.2385 16.9976 21.1089 10.3846 23.2635C7.90941 23.9368 3.8557 27.8689 5.76113 34.4403C5.20071 35.5625 3.12715 37.1604 0.997559 38.3454L1.55798 40.5ZM13.9923 24.7272C10.1234 24.7272 6.98705 27.1388 6.98705 30.1136C6.98705 33.0884 10.1234 35.5 13.9923 35.5C17.8612 35.5 20.9976 33.0884 20.9976 30.1136C20.9976 27.1388 17.8612 24.7272 13.9923 24.7272Z" fill="#1B4669" fill-opacity="0.35"/>
<path fill-rule="evenodd" clip-rule="evenodd" d="M36.4432 18.9541L37.8442 14.9143L22.9931 6.96933C21.6388 3.73748 16.9406 -1.86439 8.98259 1.58291C5.24646 4.54544 0.492226 11.5208 11.3644 15.7223L13.1857 17.7422L15.5675 15.7223C17.3422 15.4978 21.1998 14.1063 22.4327 10.3358L36.4432 18.9541ZM13.9923 2.72717C10.1234 2.72717 6.98705 5.13875 6.98705 8.11359C6.98705 11.0884 10.1234 13.5 13.9923 13.5C17.8612 13.5 20.9976 11.0884 20.9976 8.11359C20.9976 5.13875 17.8612 2.72717 13.9923 2.72717Z" fill="#1B4669" fill-opacity="0.35"/>
</svg>
