<svg width="22" height="23" viewBox="0 0 22 23" fill="none" xmlns="http://www.w3.org/2000/svg">
<path d="M15.8114 22.5C15.1012 22.5 14.3971 22.3745 13.7085 22.1243C10.6751 21.0224 7.8595 19.2276 5.56591 16.9341C3.27232 14.6406 1.47758 11.8249 0.375686 8.79151C0.0215937 7.81668 -0.0829025 6.81039 0.0652054 5.80049C0.203946 4.85453 0.570371 3.9362 1.12491 3.14475C1.68189 2.34981 2.42445 1.68864 3.27228 1.23272C4.17639 0.746545 5.16322 0.5 6.20543 0.5C6.52958 0.5 6.80972 0.726479 6.87765 1.0434L7.95673 6.07909C8.00559 6.30712 7.93551 6.54438 7.77064 6.70929L5.92679 8.55309C7.66619 12.0113 10.4886 14.8337 13.9469 16.5731L15.7907 14.7293C15.9555 14.5644 16.1929 14.4944 16.4209 14.5432L21.4566 15.6223C21.7736 15.6902 22 15.9704 22 16.2945C22 17.3367 21.7535 18.3236 21.2672 19.2277C20.8113 20.0755 20.1501 20.8181 19.3552 21.375C18.5638 21.9296 17.6454 22.296 16.6994 22.4347C16.403 22.4783 16.1066 22.5 15.8114 22.5ZM5.65614 1.90502C4.2814 2.05678 3.06122 2.77734 2.25095 3.93379C1.33978 5.23419 1.12731 6.83363 1.66801 8.3221C3.78647 14.1538 8.34619 18.7135 14.178 20.832C15.6664 21.3727 17.2659 21.1602 18.5663 20.249C19.7227 19.4388 20.4433 18.2186 20.5951 16.8439L16.4985 15.9661L14.5729 17.8917C14.368 18.0966 14.0567 18.151 13.7945 18.0278C9.70442 16.1063 6.39371 12.7956 4.47222 8.70558C4.34903 8.44335 4.40343 8.13201 4.60834 7.92714L6.53396 6.00154L5.65614 1.90502Z" fill="#1B4669"/>
<path d="M21.3121 12.187C20.9324 12.187 20.6246 11.8792 20.6246 11.4995C20.6246 6.19252 16.307 1.87494 11 1.87494C10.6203 1.87494 10.3125 1.56713 10.3125 1.18747C10.3125 0.807815 10.6203 0.5 11 0.5C13.9381 0.5 16.7003 1.64412 18.7779 3.72166C20.8554 5.7992 21.9996 8.56142 21.9996 11.4995C21.9996 11.8792 21.6918 12.187 21.3121 12.187Z" fill="#1B4669"/>
<path d="M18.5622 12.1871C18.1825 12.1871 17.8747 11.8793 17.8747 11.4997C17.8747 7.70895 14.7907 4.62494 11 4.62494C10.6203 4.62494 10.3125 4.31713 10.3125 3.93747C10.3125 3.55782 10.6203 3.25 11 3.25C15.5489 3.25 19.2497 6.95079 19.2497 11.4997C19.2497 11.8793 18.9419 12.1871 18.5622 12.1871Z" fill="#1B4669"/>
<path d="M15.8123 12.1873C15.4326 12.1873 15.1248 11.8794 15.1248 11.4998C15.1248 9.22532 13.2744 7.37495 11 7.37495C10.6203 7.37495 10.3125 7.06713 10.3125 6.68747C10.3125 6.30782 10.6203 6 11 6C14.0326 6 16.4998 8.46717 16.4998 11.4998C16.4998 11.8794 16.192 12.1873 15.8123 12.1873Z" fill="#1B4669"/>
</svg>
