<svg width="81" height="41" viewBox="0 0 81 41" fill="none" xmlns="http://www.w3.org/2000/svg">
<path d="M38.913 20.5645C38.1658 21.148 37.2318 22.3958 39.4734 22.719C40.2673 22.2253 41.2667 21.1031 38.913 20.5645Z" stroke="#1B4669" stroke-opacity="0.35"/>
<path d="M2.90376 14.7739L37.3696 17.4671L23.219 20.5643L1.0824 15.5819L2.90376 14.7739Z" fill="#1B4669" fill-opacity="0.35"/>
<path fill-rule="evenodd" clip-rule="evenodd" d="M79.5438 0.5C77.3489 1.89149 72.7908 4.53981 72.1183 4.00117C68.5689 2.60968 60.7978 1.68501 58.1078 9.11826L38.9134 18.5445L0.104248 26.7588L3.18656 27.2974L42.1358 24.8735L43.2566 20.9684L58.6682 13.4274C59.9291 15.7615 64.1042 19.8911 70.7172 17.7365C73.1924 17.0632 77.2461 13.1311 75.3407 6.55972C75.9011 5.43755 77.9747 3.83958 80.1042 2.65457L79.5438 0.5ZM67.1095 16.2728C70.9784 16.2728 74.1148 13.8612 74.1148 10.8864C74.1148 7.91158 70.9784 5.5 67.1095 5.5C63.2406 5.5 60.1042 7.91158 60.1042 10.8864C60.1042 13.8612 63.2406 16.2728 67.1095 16.2728Z" fill="#1B4669" fill-opacity="0.35"/>
<path fill-rule="evenodd" clip-rule="evenodd" d="M44.6586 22.0459L43.2576 26.0857L58.1087 34.0307C59.4631 37.2625 64.1612 42.8644 72.1192 39.4171C75.8553 36.4546 80.6096 29.4792 69.7374 25.2777L67.9161 23.2578L65.5343 25.2777C63.7596 25.5022 59.9021 26.8937 58.6691 30.6642L44.6586 22.0459ZM67.1095 38.2728C70.9784 38.2728 74.1148 35.8612 74.1148 32.8864C74.1148 29.9116 70.9784 27.5 67.1095 27.5C63.2406 27.5 60.1042 29.9116 60.1042 32.8864C60.1042 35.8612 63.2406 38.2728 67.1095 38.2728Z" fill="#1B4669" fill-opacity="0.35"/>
</svg>
