<svg width="14" height="15" viewBox="0 0 14 15" fill="none" xmlns="http://www.w3.org/2000/svg">
<path d="M10.4087 0.966196C8.02651 0.511268 5.55268 0.511268 3.17048 0.966196C2.11682 1.19366 0.788285 2.46746 0.559228 3.4683C0.146924 5.42449 0.146924 7.42617 0.559228 9.38237C0.834097 10.3832 2.16263 11.657 3.17048 11.8845C3.2163 11.8845 3.2621 11.93 3.2621 11.9755V14.8415C3.2621 14.978 3.44535 15.069 3.53698 14.9325L4.91132 13.5222C4.91132 13.5222 6.0108 12.3849 6.19404 12.2029C6.19404 12.2029 6.23986 12.1574 6.28567 12.1574C7.66001 12.2029 9.08017 12.0664 10.4545 11.839C11.5082 11.6115 12.8367 10.3377 13.0658 9.33687C13.4781 7.38068 13.4781 5.379 13.0658 3.42281C12.7909 2.46746 11.4624 1.19366 10.4087 0.966196ZM10.4545 9.51884C10.2255 9.97377 9.95059 10.3377 9.49247 10.5652C9.35504 10.6107 9.2176 10.6562 9.08017 10.7017C8.89692 10.6562 8.75949 10.6107 8.62206 10.5652C7.15609 9.97377 5.78174 9.1549 4.68227 7.97209C4.08672 7.2897 3.58279 6.51632 3.17048 5.69745C2.98724 5.28801 2.80399 4.92407 2.66656 4.51463C2.52912 4.15069 2.75818 3.78675 2.98724 3.51379C3.21629 3.24084 3.49116 3.05887 3.81185 2.92239C4.0409 2.78591 4.26996 2.87689 4.45321 3.05887C4.8197 3.51379 5.18619 3.96872 5.46106 4.46914C5.64431 4.78759 5.59849 5.15153 5.27781 5.379C5.18619 5.42449 5.14038 5.46998 5.04876 5.56097C5.00294 5.60646 4.91132 5.65195 4.86551 5.74294C4.77389 5.87942 4.77389 6.0159 4.8197 6.15238C5.18619 7.19871 5.87336 8.01758 6.92703 8.47251C7.11027 8.56349 7.24771 8.60899 7.47677 8.60899C7.79745 8.5635 7.93488 8.19955 8.16394 8.01758C8.393 7.83561 8.66786 7.83561 8.94273 7.97209C9.17179 8.10857 9.40085 8.29054 9.67572 8.47251C9.90478 8.65448 10.1338 8.79096 10.3629 8.97293C10.5003 9.06392 10.5461 9.29138 10.4545 9.51884ZM8.53043 6.10688C8.43881 6.10688 8.48462 6.10688 8.53043 6.10688C8.34718 6.10688 8.30137 6.0159 8.25556 5.87942C8.25556 5.78843 8.25556 5.65196 8.20975 5.56097C8.16394 5.379 8.07232 5.19703 7.88907 5.06055C7.79745 5.01506 7.70582 4.96956 7.6142 4.92407C7.47676 4.87858 7.38514 4.87858 7.24771 4.87858C7.11028 4.83309 7.06446 4.7421 7.06446 4.60562C7.06446 4.51464 7.2019 4.42365 7.29352 4.42365C8.0265 4.46914 8.57624 4.87858 8.66787 5.74294C8.66787 5.78843 8.66787 5.87942 8.66787 5.92491C8.66787 6.0159 8.62205 6.10688 8.53043 6.10688ZM8.07231 4.1052C7.84326 4.01421 7.6142 3.92323 7.33933 3.87774C7.24771 3.87774 7.11028 3.83224 7.01865 3.83224C6.88122 3.83224 6.78959 3.74126 6.83541 3.60478C6.83541 3.4683 6.92703 3.37731 7.06446 3.42281C7.52258 3.4683 7.93488 3.55929 8.34719 3.74126C9.17179 4.15069 9.62991 4.83308 9.76734 5.74294C9.76734 5.78843 9.76734 5.83393 9.76734 5.87942C9.76734 5.97041 9.76734 6.06139 9.76734 6.19787C9.76734 6.24336 9.76734 6.28886 9.76734 6.33435C9.72153 6.51632 9.40085 6.56181 9.35504 6.33435C9.35504 6.28886 9.30923 6.19787 9.30923 6.15238C9.30923 5.74294 9.21761 5.33351 9.03436 4.96956C8.75949 4.56013 8.43881 4.28717 8.07231 4.1052ZM10.5461 6.83477C10.4087 6.83477 10.3171 6.69829 10.3171 6.56181C10.3171 6.28886 10.2713 6.0159 10.2255 5.74294C10.0422 4.28717 8.85111 3.10436 7.43096 2.87689C7.2019 2.8314 6.97284 2.8314 6.78959 2.78591C6.65216 2.78591 6.46891 2.78591 6.4231 2.60394C6.37729 2.46746 6.51472 2.33098 6.65216 2.33098C6.69797 2.33098 6.74378 2.33098 6.74378 2.33098C8.62206 2.37647 6.83541 2.33098 6.74378 2.33098C8.66787 2.37647 10.2713 3.65027 10.5919 5.56097C10.6378 5.87942 10.6836 6.19787 10.6836 6.56181C10.7752 6.69829 10.6836 6.83477 10.5461 6.83477Z" fill="white"/>
</svg>
